<svg width="512" height="512" viewBox="0 0 512 512" fill="none" xmlns="http://www.w3.org/2000/svg">
  <rect x="12" y="12" width="488" height="488" rx="82" fill="#ffffff" stroke="#2f7d1f" stroke-width="14"/>
  <circle cx="256" cy="256" r="196" fill="#ffffff" stroke="#2f7d1f" stroke-width="15"/>
  <circle cx="256" cy="256" r="154" fill="#f8fbf5" stroke="#0b5f33" stroke-width="7"/>
  <circle cx="256" cy="220" r="70" fill="#0b76a8"/>
  <path d="M187 220c25-18 54-28 87-30 25-1 48 4 69 15-10-32-44-55-84-55-46 0-83 31-83 70 0 6 1 11 3 17l8-17Z" fill="#7dbc34"/>
  <path d="M196 255c22 23 61 38 102 25 20-6 36-18 46-34-39 11-72 7-101-8-19-10-34-9-47 17Z" fill="#62a929"/>
  <path d="M164 226c34-2 58-8 83-26 14-10 30-14 49-14 18 0 34 4 49 11-14 8-31 14-48 18-27 7-46 18-56 34-19-16-43-23-77-23Z" fill="#f5c22b"/>
  <path d="M168 228c50 7 87-4 113-32 18 23 44 40 79 51-24 28-59 44-100 44-39 0-71-23-92-63Z" fill="#f3b61b"/>
  <path d="M190 320h132c4 0 7 3 7 7v35c0 4-3 7-7 7H190c-4 0-7-3-7-7v-35c0-4 3-7 7-7Z" fill="#ffffff" stroke="#0b5f33" stroke-width="7"/>
  <path d="M256 325v39" stroke="#0b5f33" stroke-width="6"/>
  <path d="M200 320c17 0 34 4 51 13v32c-16-8-33-12-51-12v-33Z" fill="#eaf3e6"/>
  <path d="M312 320c-17 0-34 4-51 13v32c16-8 33-12 51-12v-33Z" fill="#eaf3e6"/>
  <rect x="139" y="272" width="78" height="58" rx="8" fill="#e8eef2" stroke="#15343d" stroke-width="7"/>
  <rect x="149" y="283" width="58" height="36" rx="4" fill="#ffffff"/>
  <circle cx="169" cy="301" r="8" fill="#0b5f33"/>
  <path d="M184 293h16M184 305h13" stroke="#78909c" stroke-width="5" stroke-linecap="round"/>
  <path d="M361 330h22v-52h-22v52Zm-30 0h22v-34h-22v34Zm60 0h22v-76h-22v76Z" fill="#2c7ed6"/>
  <path d="M331 330h22v-34h-22v34Z" fill="#72b832"/>
  <path d="M361 330h22v-52h-22v52Z" fill="#f6c333"/>
  <path d="M391 330h22v-76h-22v76Z" fill="#1f74c9"/>
  <path d="M329 280l36-35 25 16 32-52" stroke="#a51f1f" stroke-width="8" stroke-linecap="round" stroke-linejoin="round"/>
  <path d="M419 210l8-22-22 7 14 15Z" fill="#a51f1f"/>
  <circle cx="117" cy="167" r="34" fill="#63a826"/>
  <path d="M102 157h30v29h-30v-29Zm0 9h30M112 149v14M124 149v14M111 176h3M121 176h3M111 168h3M121 168h3" stroke="#ffffff" stroke-width="4" stroke-linecap="round"/>
  <circle cx="395" cy="167" r="34" fill="#2b67c7"/>
  <path d="M380 181c2-11 10-18 19-18s17 7 19 18M390 152a9 9 0 1 0 18 0 9 9 0 0 0-18 0" stroke="#ffffff" stroke-width="6" stroke-linecap="round"/>
  <circle cx="102" cy="278" r="34" fill="#7a36b3"/>
  <path d="M84 280l37-15v31L84 280Zm37-15l11-10M124 281h15M124 295l12 9" stroke="#ffffff" stroke-width="7" stroke-linecap="round" stroke-linejoin="round"/>
  <circle cx="410" cy="278" r="34" fill="#e8840d"/>
  <path d="M393 267h34v29h-34v-29Zm0 9h34M402 259v13M418 259v13M410 284l4 7-8-4 8-4-4 7" stroke="#ffffff" stroke-width="4" stroke-linecap="round" stroke-linejoin="round"/>
  <circle cx="256" cy="388" r="31" fill="#23a991"/>
  <path d="M243 397v-17M256 397v-29M269 397v-42" stroke="#ffffff" stroke-width="8" stroke-linecap="round"/>
  <path id="topTextPath" d="M125 154a164 164 0 0 1 262 0"/>
  <path id="bottomTextPath" d="M100 334a184 184 0 0 0 312 0"/>
  <text font-family="Arial, Helvetica, sans-serif" font-weight="900" font-size="39" fill="#073b2a" letter-spacing="2">
    <textPath href="#topTextPath" startOffset="50%" text-anchor="middle">REGISTROS</textPath>
  </text>
  <text font-family="Arial, Helvetica, sans-serif" font-weight="800" font-size="21" fill="#073b2a" letter-spacing="4">
    <textPath href="#topTextPath" startOffset="50%" text-anchor="middle" dy="34">ACADEMICOS</textPath>
  </text>
  <text font-family="Arial, Helvetica, sans-serif" font-weight="900" font-size="28" fill="#073b2a" letter-spacing="2">
    <textPath href="#bottomTextPath" startOffset="50%" text-anchor="middle">FACULTAD DE ECONOMIA</textPath>
  </text>
  <text x="256" y="456" text-anchor="middle" font-family="Arial, Helvetica, sans-serif" font-weight="800" font-size="16" fill="#073b2a" letter-spacing="1.5">UNIVERSIDAD AUTONOMA DE CHIRIQUI</text>
</svg>
